<?xml version="1.0" encoding="UTF-8"?>
<!DOCTYPE svg PUBLIC "-//W3C//DTD SVG 1.1//EN" "http://www.w3.org/Graphics/SVG/1.1/DTD/svg11.dtd">
<!-- Creator: CorelDRAW X8 -->
<svg xmlns="http://www.w3.org/2000/svg" xml:space="preserve" width="199.684mm" height="42.1046mm" version="1.1" style="shape-rendering:geometricPrecision; text-rendering:geometricPrecision; image-rendering:optimizeQuality; fill-rule:evenodd; clip-rule:evenodd"
viewBox="0 0 19545 4121"
 xmlns:xlink="http://www.w3.org/1999/xlink">
 <defs>
  <style type="text/css">
   <![CDATA[
    .fil1 {fill:#4F99C6}
    .fil5 {fill:#629B58}
    .fil6 {fill:#6FB3E0}
    .fil2 {fill:#7461AA}
    .fil11 {fill:#87B87F}
    .fil7 {fill:#9585BF}
    .fil3 {fill:#B73766}
    .fil4 {fill:#B74635}
    .fil0 {fill:#B78735}
    .fil9 {fill:#D15B47}
    .fil8 {fill:#D6487E}
    .fil10 {fill:#D7A750}
    .fil12 {fill:#d6d6d6;fill-rule:nonzero}
   ]]>
  </style>
 </defs>
 <g id="Layer_x0020_1">
  <metadata id="CorelCorpID_0Corel-Layer"/>
  <g id="_293692400">
   <polygon class="fil0" points="710,1259 758,1174 1918,1914 1937,1986 969,2252 "/>
   <polygon class="fil1" points="2059,3662 1867,3662 1982,2287 2059,2208 2768,2935 "/>
   <polygon class="fil2" points="3411,2862 3359,2956 2207,2223 2184,2136 3152,1870 "/>
   <polygon class="fil3" points="3413,1261 3444,1317 2276,2013 2186,1988 2445,995 "/>
   <polygon class="fil4" points="2062,460 2137,460 2104,1870 2062,1913 1354,1186 "/>
   <polygon class="fil5" points="708,2860 649,2754 1846,2108 1935,2133 1676,3126 "/>
   <polygon class="fil6" points="2059,3662 642,3662 2059,2208 "/>
   <polygon class="fil7" points="3411,2862 2703,4121 2184,2136 3319,2808 "/>
   <polygon class="fil8" points="3413,1261 4121,2520 2186,1988 "/>
   <polygon class="fil9" points="2062,460 3479,460 2062,1913 "/>
   <polygon class="fil10" points="710,1259 1418,0 1937,1986 "/>
   <polygon class="fil11" points="708,2860 0,1601 1935,2133 "/>
  </g>
  <path class="fil12" d="M6233 2644c0,134 -25,251 -74,352 -51,101 -118,185 -203,253 -86,67 -185,118 -299,152 -114,34 -237,51 -367,51 -88,0 -169,-7 -245,-22 -75,-15 -142,-32 -199,-53 -58,-20 -106,-42 -145,-65 -39,-22 -67,-42 -84,-59 -17,-18 -29,-43 -36,-75 -8,-32 -11,-78 -11,-138 0,-41 1,-75 4,-102 3,-28 7,-50 13,-67 6,-17 14,-29 23,-36 10,-8 22,-11 35,-11 18,0 44,11 78,33 33,21 76,45 129,72 52,26 115,50 188,71 73,22 157,33 253,33 64,0 120,-7 170,-22 50,-15 92,-36 127,-64 35,-27 61,-61 80,-101 18,-40 28,-85 28,-135 0,-58 -16,-107 -47,-148 -32,-42 -73,-78 -124,-110 -50,-33 -108,-63 -172,-91 -64,-28 -131,-58 -199,-89 -69,-32 -135,-67 -199,-108 -64,-39 -122,-87 -172,-143 -51,-55 -92,-121 -124,-198 -31,-76 -47,-167 -47,-273 0,-121 23,-229 68,-321 45,-92 106,-169 183,-230 77,-61 167,-107 271,-137 104,-30 215,-45 331,-45 60,0 120,5 181,14 60,9 117,22 169,37 52,16 99,34 140,53 40,20 67,36 80,50 13,13 22,24 26,33 5,9 9,21 12,37 4,14 6,33 7,57 2,23 2,51 2,85 0,38 0,70 -2,96 -3,26 -6,48 -11,65 -4,17 -11,30 -19,37 -9,8 -20,12 -35,12 -14,0 -37,-9 -68,-27 -32,-19 -71,-39 -117,-61 -46,-21 -99,-41 -159,-58 -61,-18 -126,-27 -199,-27 -56,0 -105,7 -148,21 -41,13 -76,33 -104,57 -29,24 -50,53 -63,87 -15,34 -21,70 -21,108 0,56 15,105 46,146 31,42 73,79 124,111 52,32 111,62 177,90 65,28 132,58 200,89 69,32 136,67 201,108 66,40 124,88 176,143 51,56 93,121 124,197 32,75 47,164 47,266zm1955 -231c0,60 -14,105 -40,134 -27,28 -64,43 -112,43l-1068 0c0,75 8,142 26,203 18,60 46,112 84,154 39,43 89,75 150,97 61,22 134,34 219,34 86,0 162,-7 228,-19 65,-13 122,-26 170,-42 48,-15 87,-29 119,-41 31,-13 57,-19 76,-19 12,0 22,2 30,6 8,5 14,13 20,25 5,12 9,28 11,50 2,21 2,49 2,81 0,29 0,54 -2,74 -1,20 -3,38 -6,52 -2,14 -6,27 -11,36 -6,10 -12,19 -21,29 -9,9 -32,21 -70,37 -38,16 -86,32 -145,47 -60,16 -127,29 -202,41 -76,11 -158,17 -244,17 -157,0 -293,-19 -410,-59 -117,-39 -215,-99 -294,-179 -79,-79 -137,-181 -176,-302 -38,-122 -58,-265 -58,-429 0,-156 20,-296 61,-422 40,-125 100,-231 177,-318 78,-87 172,-154 282,-199 112,-47 237,-69 376,-69 147,0 272,21 376,65 105,43 190,103 257,180 67,76 116,167 148,272 31,105 47,219 47,342l0 79zm-479 -141c4,-139 -25,-248 -84,-328 -60,-79 -152,-119 -277,-119 -63,0 -118,12 -164,36 -47,23 -86,55 -117,95 -31,40 -54,87 -71,142 -16,55 -26,112 -28,174l741 0zm2352 1075c0,19 -6,33 -19,43 -14,11 -34,18 -63,23 -28,5 -69,7 -125,7 -59,0 -102,-2 -129,-7 -27,-5 -46,-12 -57,-23 -11,-10 -17,-24 -17,-43l0 -139c-72,77 -154,137 -247,180 -92,43 -194,64 -307,64 -93,0 -179,-12 -257,-36 -78,-24 -145,-61 -202,-108 -57,-49 -101,-108 -133,-178 -31,-71 -47,-154 -47,-248 0,-103 21,-191 60,-266 40,-76 100,-138 179,-188 80,-49 178,-85 296,-108 117,-24 254,-36 410,-36l171 0 0 -106c0,-55 -5,-103 -17,-145 -11,-41 -29,-76 -55,-103 -25,-28 -59,-48 -102,-61 -42,-13 -95,-20 -158,-20 -82,0 -156,10 -220,28 -66,18 -123,39 -172,61 -50,22 -92,43 -125,61 -34,18 -61,27 -81,27 -15,0 -28,-4 -39,-13 -11,-9 -20,-23 -27,-40 -8,-16 -13,-38 -17,-63 -4,-25 -6,-52 -6,-82 0,-41 3,-73 10,-96 6,-24 19,-45 37,-64 19,-19 50,-40 97,-63 45,-22 99,-44 161,-63 62,-20 129,-37 201,-49 73,-12 149,-18 226,-18 137,0 255,13 353,40 97,27 178,68 240,124 63,56 109,128 138,216 29,87 43,191 43,312l0 1180zm-487 -753l-189 0c-80,0 -147,6 -204,18 -56,12 -102,29 -137,53 -36,24 -61,52 -77,86 -17,33 -25,71 -25,114 0,74 23,132 69,174 47,42 111,63 194,63 69,0 133,-18 191,-53 59,-36 118,-88 178,-156l0 -299zm3743 747c0,13 -4,25 -12,35 -8,10 -21,18 -39,24 -19,6 -44,12 -75,15 -32,4 -72,5 -120,5 -51,0 -92,-1 -123,-5 -32,-3 -57,-9 -76,-15 -19,-6 -32,-14 -40,-24 -7,-10 -10,-22 -10,-35l0 -1040c0,-59 -6,-113 -17,-161 -11,-49 -28,-91 -51,-125 -23,-35 -52,-62 -86,-81 -35,-19 -76,-28 -124,-28 -59,0 -119,22 -179,69 -60,45 -125,112 -196,200l0 1166c0,13 -4,25 -12,35 -7,10 -21,18 -40,24 -19,6 -45,12 -76,15 -32,4 -71,5 -118,5 -49,0 -90,-1 -121,-5 -32,-3 -57,-9 -76,-15 -19,-6 -33,-14 -40,-24 -8,-10 -12,-22 -12,-35l0 -1040c0,-59 -6,-113 -17,-161 -11,-49 -28,-91 -50,-125 -23,-35 -51,-62 -86,-81 -36,-19 -78,-28 -125,-28 -60,0 -120,22 -180,69 -61,45 -126,112 -195,200l0 1166c0,13 -4,25 -12,35 -7,10 -21,18 -40,24 -19,6 -44,12 -75,15 -32,4 -72,5 -120,5 -49,0 -89,-1 -121,-5 -30,-3 -56,-9 -75,-15 -19,-6 -33,-14 -40,-24 -8,-10 -12,-22 -12,-35l0 -1756c0,-12 3,-24 10,-34 6,-10 18,-18 35,-25 17,-6 39,-11 66,-14 26,-4 61,-5 101,-5 42,0 76,1 104,5 28,3 49,8 64,14 15,7 26,15 33,25 6,10 10,22 10,34l0 203c96,-105 194,-183 290,-235 96,-52 197,-78 302,-78 72,0 137,7 195,22 58,15 109,37 154,65 45,28 84,62 117,101 33,39 61,83 83,131 53,-56 104,-105 154,-145 51,-40 101,-74 150,-99 49,-26 98,-45 148,-57 49,-12 99,-18 150,-18 116,0 215,19 295,59 79,39 144,92 193,160 50,67 85,146 105,237 21,91 32,186 32,287l0 1123zm951 0c0,13 -4,25 -12,35 -7,10 -21,18 -40,24 -19,6 -45,12 -76,15 -31,4 -71,5 -120,5 -48,0 -88,-1 -120,-5 -31,-3 -56,-9 -75,-15 -19,-6 -33,-14 -40,-24 -8,-10 -12,-22 -12,-35l0 -2587c0,-14 4,-25 12,-36 7,-10 21,-19 40,-26 19,-7 44,-13 75,-17 32,-4 72,-6 120,-6 49,0 89,2 120,6 31,4 57,10 76,17 19,7 33,16 40,26 8,11 12,22 12,36l0 2587zm2084 -928c0,60 -14,105 -41,134 -27,28 -63,43 -111,43l-1069 0c0,75 9,142 27,203 18,60 46,112 84,154 39,43 89,75 150,97 61,22 133,34 219,34 86,0 162,-7 228,-19 65,-13 122,-26 170,-42 47,-15 87,-29 118,-41 32,-13 57,-19 77,-19 12,0 22,2 29,6 9,5 15,13 21,25 4,12 8,28 10,50 2,21 3,49 3,81 0,29 -1,54 -2,74 -1,20 -3,38 -6,52 -3,14 -6,27 -11,36 -6,10 -13,19 -21,29 -9,9 -32,21 -70,37 -38,16 -87,32 -146,47 -59,16 -126,29 -202,41 -76,11 -157,17 -243,17 -157,0 -293,-19 -411,-59 -116,-39 -214,-99 -294,-179 -78,-79 -136,-181 -175,-302 -39,-122 -58,-265 -58,-429 0,-156 20,-296 61,-422 40,-125 99,-231 177,-318 77,-87 171,-154 282,-199 111,-47 236,-69 375,-69 147,0 273,21 377,65 105,43 190,103 257,180 66,76 116,167 148,272 31,105 47,219 47,342l0 79zm-480 -141c4,-139 -24,-248 -84,-328 -59,-79 -151,-119 -276,-119 -63,0 -118,12 -165,36 -47,23 -86,55 -116,95 -31,40 -55,87 -71,142 -17,55 -26,112 -29,174l741 0zm2095 573c0,99 -19,187 -56,263 -37,76 -90,139 -159,191 -68,51 -149,89 -242,115 -93,25 -194,38 -303,38 -65,0 -128,-5 -188,-15 -60,-10 -113,-23 -161,-38 -47,-15 -86,-30 -118,-46 -31,-16 -54,-31 -68,-45 -15,-14 -26,-36 -34,-65 -8,-29 -12,-73 -12,-131 0,-37 1,-67 4,-90 3,-23 7,-42 12,-55 5,-14 12,-23 20,-28 7,-4 17,-6 29,-6 14,0 36,8 64,24 28,17 63,35 105,55 42,20 91,39 147,55 55,18 119,27 190,27 44,0 84,-5 119,-14 34,-9 65,-23 90,-40 26,-17 45,-38 59,-65 12,-26 19,-57 19,-91 0,-39 -12,-73 -36,-101 -25,-28 -57,-53 -97,-74 -40,-21 -86,-40 -136,-59 -51,-18 -103,-38 -156,-61 -53,-22 -105,-48 -156,-77 -50,-29 -96,-63 -136,-106 -40,-41 -72,-92 -97,-151 -24,-59 -36,-130 -36,-213 0,-83 17,-160 50,-230 33,-70 80,-131 141,-180 63,-50 138,-89 227,-116 89,-28 188,-41 299,-41 56,0 109,4 161,11 52,8 100,18 141,30 42,12 78,24 107,38 29,13 50,25 62,35 13,10 22,19 27,29 5,10 9,22 12,36 2,13 5,31 7,51 2,20 3,45 3,76 0,35 -1,64 -3,86 -2,22 -5,41 -10,53 -5,14 -11,22 -19,27 -8,5 -17,7 -27,7 -13,0 -31,-7 -56,-21 -25,-13 -57,-28 -94,-44 -38,-15 -81,-30 -130,-43 -50,-14 -106,-21 -169,-21 -45,0 -84,5 -117,13 -33,10 -60,23 -82,40 -20,17 -36,37 -47,60 -10,23 -16,47 -16,73 0,41 13,75 38,103 25,27 58,51 99,72 40,21 87,41 139,59 51,18 104,38 157,60 53,21 106,47 158,76 52,29 99,64 139,106 41,42 74,92 99,150 25,59 37,128 37,208zm1578 0c0,99 -19,187 -57,263 -37,76 -90,139 -158,191 -69,51 -149,89 -242,115 -94,25 -194,38 -303,38 -66,0 -129,-5 -189,-15 -59,-10 -113,-23 -160,-38 -47,-15 -87,-30 -118,-46 -32,-16 -55,-31 -69,-45 -15,-14 -26,-36 -33,-65 -8,-29 -12,-73 -12,-131 0,-37 1,-67 4,-90 2,-23 6,-42 11,-55 5,-14 12,-23 20,-28 8,-4 18,-6 30,-6 14,0 35,8 63,24 29,17 64,35 106,55 41,20 90,39 146,55 56,18 120,27 190,27 44,0 85,-5 119,-14 35,-9 65,-23 91,-40 25,-17 45,-38 58,-65 13,-26 19,-57 19,-91 0,-39 -12,-73 -36,-101 -25,-28 -57,-53 -96,-74 -41,-21 -86,-40 -137,-59 -50,-18 -102,-38 -155,-61 -54,-22 -106,-48 -156,-77 -51,-29 -96,-63 -136,-106 -40,-41 -72,-92 -97,-151 -24,-59 -36,-130 -36,-213 0,-83 16,-160 49,-230 33,-70 80,-131 142,-180 62,-50 138,-89 226,-116 89,-28 189,-41 300,-41 55,0 108,4 161,11 51,8 99,18 141,30 42,12 77,24 106,38 29,13 50,25 63,35 12,10 21,19 27,29 4,10 8,22 11,36 3,13 5,31 7,51 2,20 3,45 3,76 0,35 -1,64 -3,86 -2,22 -5,41 -10,53 -4,14 -10,22 -18,27 -9,5 -18,7 -28,7 -12,0 -31,-7 -56,-21 -25,-13 -56,-28 -94,-44 -37,-15 -81,-30 -130,-43 -50,-14 -106,-21 -169,-21 -45,0 -84,5 -117,13 -33,10 -60,23 -81,40 -21,17 -37,37 -47,60 -11,23 -16,47 -16,73 0,41 13,75 37,103 25,27 58,51 99,72 40,21 87,41 139,59 52,18 105,38 158,60 53,21 106,47 158,76 51,29 98,64 138,106 41,42 74,92 99,150 25,59 38,128 38,208z"/>
 </g>
</svg>
