<?xml version="1.0" encoding="UTF-8" standalone="no"?>
<!-- Creator: CorelDRAW 2020 (64-Bit) -->

<svg
   xml:space="preserve"
   width="128"
   height="128"
   version="1.1"
   style="clip-rule:evenodd;fill-rule:evenodd;image-rendering:optimizeQuality;shape-rendering:geometricPrecision;text-rendering:geometricPrecision"
   viewBox="0 0 18.4032 18.4032"
   id="svg3"
   xmlns="http://www.w3.org/2000/svg"
   xmlns:svg="http://www.w3.org/2000/svg">
 <defs
   id="defs1"><style
     type="text/css"
     id="style1">
   <![CDATA[
    .fil2 {fill:#FEFEFE}
    .fil0 {fill:#0FAD72}
    .fil1 {fill:#FEFEFE}
   ]]>
  </style></defs>
 <g
   id="Layer_x0020_1">
  <metadata
   id="CorelCorpID_0Corel-Layer" />
  <g
   id="_1656975390080"
   transform="scale(0.31994436)">
   <circle
   class="fil0"
   cx="28.76"
   cy="28.76"
   r="28.76"
   id="circle1" />
   <path
   class="fil1"
   d="m 26.58,33.55 -0.02,-8.83 c 4.16,-0.12 4.98,0.03 4.97,4.32 -0.02,4.57 -0.28,4.72 -4.95,4.51 z m 0,-20.6 c 3.83,-0.16 4.49,-0.04 4.48,3.87 0,3.66 -1,3.8 -4.5,3.75 z m -4.56,24.71 c 1.94,0.19 6.21,0.15 8.18,0 2.48,-0.19 4.24,-1.34 5.1,-3.08 0.97,-2.01 1.74,-8.98 -1.2,-11.45 -0.48,-0.41 -0.86,-0.5 -1.28,-0.84 0.89,-0.86 2.43,-1.24 2.75,-4.65 C 36.5,7.72 30.55,8.55 22.04,8.82 Z"
   id="path1" />
   <path
   class="fil0"
   d="m 26.58,33.55 c 4.67,0.21 4.93,0.06 4.95,-4.51 0.01,-4.29 -0.81,-4.44 -4.97,-4.32 z"
   id="path2" />
   <path
   class="fil0"
   d="m 26.56,20.57 c 3.5,0.05 4.5,-0.09 4.5,-3.75 0.01,-3.91 -0.65,-4.03 -4.48,-3.87 z"
   id="path3" />
   <rect
   class="fil2"
   x="22.02"
   y="41.599998"
   width="13.29"
   height="7.4499998"
   id="rect3" />
  </g>
 </g>
</svg>
