<?xml version="1.0" encoding="UTF-8" standalone="no"?>
<!-- Created with Inkscape (http://www.inkscape.org/) -->

<svg
   width="128"
   height="128"
   viewBox="0 0 128 128"
   version="1.1"
   id="svg1"
   xml:space="preserve"
   inkscape:export-filename="postgresql.svg"
   inkscape:export-xdpi="96"
   inkscape:export-ydpi="96"
   xmlns:inkscape="http://www.inkscape.org/namespaces/inkscape"
   xmlns:sodipodi="http://sodipodi.sourceforge.net/DTD/sodipodi-0.dtd"
   xmlns="http://www.w3.org/2000/svg"
   xmlns:svg="http://www.w3.org/2000/svg"><sodipodi:namedview
     id="namedview1"
     pagecolor="#ffffff"
     bordercolor="#000000"
     borderopacity="0.25"
     inkscape:showpageshadow="2"
     inkscape:pageopacity="0.0"
     inkscape:pagecheckerboard="0"
     inkscape:deskcolor="#d1d1d1"
     inkscape:document-units="mm"
     showgrid="false"><inkscape:page
       x="0"
       y="0"
       width="128"
       height="128"
       id="page2"
       margin="0"
       bleed="0" /></sodipodi:namedview><defs
     id="defs1" /><g
     inkscape:label="Layer 1"
     inkscape:groupmode="layer"
     id="layer1"><g
       id="g6"
       transform="matrix(0.44902906,0,0,0.44902906,6.5243252,-1.3437325e-4)"><path
         d="m 14.3443,80.1733 h 189.206 c 20.851,0 39.47,-9.561 51.963,-24.487 -26.06,-33.851 -66.961,-55.686 -112.983,-55.686 -56.352,0 -105.054,32.711 -128.186,80.173"
         fill="#f0bf1a"
         id="path1" /><path
         d="M 187.5152,102.4438 H 5.7552 c -3.722,12.721 -5.755,26.163 -5.755,40.086 0,13.924 2.033,27.367 5.755,40.087 h 181.76 c 21.825,0 40.087,-17.816 40.087,-40.087 0,-22.27 -17.816,-40.086 -40.087,-40.086"
         fill="#07a5de"
         id="path2" /><path
         d="m 255.9996,228.7548 c -12.414,-14.591 -30.883,-23.868 -51.559,-23.868 H 14.3446 c 23.132,47.463 71.834,80.173 128.185,80.173 46.306,0 87.436,-22.097 113.47,-56.305"
         fill="#3ebeb0"
         id="path3" /><path
         d="m 5.7555,102.4438 c -3.723,12.721 -5.755,26.163 -5.755,40.086 0,13.924 2.032,27.367 5.755,40.087 h 118.958 c 3.118,-12.026 4.899,-25.388 4.899,-40.087 0,-14.698 -1.781,-28.06 -4.899,-40.086 z"
         fill="#231f20"
         id="path4" /><path
         d="m 70.8199,19.1528 c -24.053,14.253 -44.096,35.632 -56.567,61.021 h 105.116 c -10.69,-24.498 -27.615,-44.986 -48.549,-61.021"
         fill="#d7a229"
         id="path5" /><path
         d="m 75.274,268.1347 c 20.488,-16.48 36.968,-38.305 47.213,-63.248 H 14.253 c 13.362,26.725 34.742,48.995 61.021,63.248"
         fill="#019b8f"
         id="path6" /></g></g></svg>
