<?xml version="1.0" encoding="UTF-8"?>
<!DOCTYPE svg PUBLIC "-//W3C//DTD SVG 1.1//EN" "http://www.w3.org/Graphics/SVG/1.1/DTD/svg11.dtd">
<!-- Creator: CorelDRAW 2020 (64-Bit) -->
<svg xmlns="http://www.w3.org/2000/svg" xml:space="preserve" width="1.00989in" height="1.00989in" version="1.1" style="shape-rendering:geometricPrecision; text-rendering:geometricPrecision; image-rendering:optimizeQuality; fill-rule:evenodd; clip-rule:evenodd"
viewBox="0 0 1009.89 1009.89"
 xmlns:xlink="http://www.w3.org/1999/xlink"
 xmlns:xodm="http://www.corel.com/coreldraw/odm/2003">
 <defs>
  <style type="text/css">
   <![CDATA[
    .fil1 {fill:#4F99C6}
    .fil5 {fill:#629B58}
    .fil6 {fill:#6FB3E0}
    .fil2 {fill:#7461AA}
    .fil11 {fill:#87B87F}
    .fil7 {fill:#9585BF}
    .fil3 {fill:#B73766}
    .fil4 {fill:#B74635}
    .fil0 {fill:#B78735}
    .fil9 {fill:#D15B47}
    .fil8 {fill:#D6487E}
    .fil10 {fill:#D7A750}
   ]]>
  </style>
 </defs>
 <g id="Layer_x0020_1">
  <metadata id="CorelCorpID_0Corel-Layer"/>
  <g id="_1886636443472">
   <polygon class="fil0" points="173.95,308.47 185.65,287.69 470.04,468.98 474.63,486.57 237.49,551.76 "/>
   <polygon class="fil1" points="504.59,897.26 457.41,897.26 485.76,560.39 504.59,541.06 678.19,719.16 "/>
   <polygon class="fil2" points="835.94,701.41 823.04,724.34 540.84,544.68 535.26,523.32 772.4,458.13 "/>
   <polygon class="fil3" points="836.29,309.1 843.95,322.71 557.71,493.28 535.61,487.2 599.15,243.91 "/>
   <polygon class="fil4" points="505.3,112.63 523.59,112.63 515.65,458.2 505.3,468.82 331.7,290.72 "/>
   <polygon class="fil5" points="173.6,700.78 159,674.85 452.37,516.67 474.28,522.69 410.74,765.97 "/>
   <polygon class="fil6" points="504.59,897.26 157.4,897.26 504.59,541.06 "/>
   <polygon class="fil7" points="835.94,701.41 662.34,1009.89 535.26,523.32 813.3,688.01 "/>
   <polygon class="fil8" points="836.29,309.1 1009.89,617.57 535.61,487.2 "/>
   <polygon class="fil9" points="505.3,112.63 852.49,112.63 505.3,468.82 "/>
   <polygon class="fil10" points="173.95,308.47 347.55,0 474.63,486.57 "/>
   <polygon class="fil11" points="173.6,700.78 -0,392.31 474.28,522.69 "/>
  </g>
 </g>
</svg>
