<?xml version="1.0" encoding="UTF-8" standalone="no"?>
<!-- Uploaded to: SVG Repo, www.svgrepo.com, Generator: SVG Repo Mixer Tools -->

<svg
   width="128"
   height="128"
   viewBox="0 0 3.84 3.84"
   version="1.1"
   id="svg16"
   sodipodi:docname="iot-edge-svgrepo-com.svg"
   inkscape:export-filename="iot.png"
   inkscape:export-xdpi="96"
   inkscape:export-ydpi="96"
   xmlns:inkscape="http://www.inkscape.org/namespaces/inkscape"
   xmlns:sodipodi="http://sodipodi.sourceforge.net/DTD/sodipodi-0.dtd"
   xmlns="http://www.w3.org/2000/svg"
   xmlns:svg="http://www.w3.org/2000/svg"
   xmlns:rdf="http://www.w3.org/1999/02/22-rdf-syntax-ns#"
   xmlns:cc="http://creativecommons.org/ns#"
   xmlns:dc="http://purl.org/dc/elements/1.1/">
  <sodipodi:namedview
     id="namedview16"
     pagecolor="#ffffff"
     bordercolor="#000000"
     borderopacity="0.25"
     inkscape:showpageshadow="2"
     inkscape:pageopacity="0.0"
     inkscape:pagecheckerboard="0"
     inkscape:deskcolor="#d1d1d1">
    <inkscape:page
       x="0"
       y="0"
       width="3.8399999"
       height="3.8399999"
       id="page2"
       margin="0"
       bleed="0" />
  </sodipodi:namedview>
  <defs
     id="defs4">
    <style
       id="style1">.cls-1,.cls-2,.cls-8{fill:#2683fb;}.cls-1,.cls-3,.cls-5{clip-rule:evenodd;}.cls-11,.cls-3,.cls-4{fill:#a6cafd;}.cls-14,.cls-5,.cls-6{fill:#559cfc;}.cls-7{fill:none;}.cls-11,.cls-14,.cls-8{fill-rule:evenodd;}.cls-9{clip-path:url(#clip-path);}.cls-10{clip-path:url(#clip-path-2);}.cls-12{clip-path:url(#clip-path-3);}.cls-13{clip-path:url(#clip-path-4);}.cls-15{clip-path:url(#clip-path-5);}.cls-16{clip-path:url(#clip-path-6);}.cls-17{clip-path:url(#clip-path-7);}.cls-18{clip-path:url(#clip-path-9);}</style>
    <clipPath
       id="clip-path">
      <path
         class="cls-1"
         d="m 18,11 v 2 h 3 a 1,1 0 0 0 1,-1 v 0 a 1,1 0 0 0 -1,-1 z"
         id="path1" />
    </clipPath>
    <clipPath
       id="clip-path-2">
      <rect
         class="cls-2"
         width="24"
         height="24"
         id="rect1"
         x="0"
         y="0" />
    </clipPath>
    <clipPath
       id="clip-path-3">
      <path
         class="cls-3"
         d="m 2,8 v 1 h 9.46 a 1,1 0 0 1 0.84,0.45 l 1.33,2 a 1,1 0 0 1 0,1.11 l -1.33,2 a 1,1 0 0 1 -0.84,0.45 H 2 v 1 a 1,1 0 0 0 1,1 h 9.46 A 1,1 0 0 0 13.3,16.56 L 15,14 h 2 a 1,1 0 0 0 1,-1 V 11 A 1,1 0 0 0 17,10 H 15 L 13.3,7.45 A 1,1 0 0 0 12.46,7 H 3 A 1,1 0 0 0 2,8 Z"
         id="path2" />
    </clipPath>
    <clipPath
       id="clip-path-4">
      <rect
         class="cls-4"
         width="24"
         height="24"
         id="rect2"
         x="0"
         y="0" />
    </clipPath>
    <clipPath
       id="clip-path-5">
      <path
         class="cls-5"
         d="M 15,18 H 11.54 A 1,1 0 0 1 10.7,17.55 L 8,13.45 A 1,1 0 0 0 7.13,13 H 2 v 2 h 2 v -1 h 1.46 a 1,1 0 0 1 0.84,0.45 l 3.4,5.1 A 1,1 0 0 0 10.54,20 H 16 a 1,1 0 0 0 1,-1 v -2 h 4 a 1,1 0 0 0 1,-1 v 0 a 1,1 0 0 0 -1,-1 h -5 a 1,1 0 0 0 -1,1 z"
         id="path3" />
    </clipPath>
    <clipPath
       id="clip-path-6">
      <rect
         class="cls-6"
         width="24"
         height="24"
         id="rect3"
         x="0"
         y="0" />
    </clipPath>
    <clipPath
       id="clip-path-7">
      <path
         class="cls-5"
         d="M 17,7 V 5 A 1,1 0 0 0 16,4 H 10.54 A 1,1 0 0 0 9.7,4.45 L 6.3,9.55 A 1,1 0 0 1 5.46,10 H 4 V 9 H 2 v 2 H 7.13 A 1,1 0 0 0 8,10.55 l 2.74,-4.1 A 1,1 0 0 1 11.54,6 H 15 v 2 a 1,1 0 0 0 1,1 h 5 A 1,1 0 0 0 22,8 V 8 A 1,1 0 0 0 21,7 Z"
         id="path4" />
    </clipPath>
    <clipPath
       id="clip-path-9">
      <circle
         class="cls-2"
         cx="10.5"
         cy="12"
         r="1.25"
         id="circle4" />
    </clipPath>
  </defs>
  <title
     id="title4">Icon_24px_CloudIoTEdge_Color</title>
  <g
     data-name="Product Icons"
     id="g16"
     transform="matrix(0.16,0,0,0.16,5.0510586,3.6762142)">
    <g
       id="g17"
       transform="matrix(1.2,0,0,1.2,-33.969116,-25.376339)">
      <path
         class="cls-8"
         d="m 18,11 v 2 h 3 a 1,1 0 0 0 1,-1 v 0 a 1,1 0 0 0 -1,-1 z"
         id="path5" />
      <g
         class="cls-9"
         clip-path="url(#clip-path)"
         id="g7">
        <rect
           class="cls-2"
           width="24"
           height="24"
           id="rect5"
           x="0"
           y="0" />
        <g
           class="cls-10"
           clip-path="url(#clip-path-2)"
           id="g6">
          <rect
             class="cls-2"
             x="14"
             y="6"
             width="13"
             height="12"
             id="rect6" />
        </g>
      </g>
      <path
         class="cls-11"
         d="m 2,8 v 1 h 9.46 a 1,1 0 0 1 0.84,0.45 l 1.33,2 a 1,1 0 0 1 0,1.11 l -1.33,2 a 1,1 0 0 1 -0.84,0.45 H 2 v 1 a 1,1 0 0 0 1,1 h 9.46 A 1,1 0 0 0 13.3,16.56 L 15,14 h 2 a 1,1 0 0 0 1,-1 V 11 A 1,1 0 0 0 17,10 H 15 L 13.3,7.45 A 1,1 0 0 0 12.46,7 H 3 A 1,1 0 0 0 2,8 Z"
         id="path7" />
      <g
         class="cls-12"
         clip-path="url(#clip-path-3)"
         id="g9">
        <rect
           class="cls-4"
           width="24"
           height="24"
           id="rect7"
           x="0"
           y="0" />
        <g
           class="cls-13"
           clip-path="url(#clip-path-4)"
           id="g8">
          <rect
             class="cls-4"
             x="-3"
             y="2"
             width="27"
             height="20"
             id="rect8" />
        </g>
      </g>
      <path
         class="cls-14"
         d="M 15,18 H 11.54 A 1,1 0 0 1 10.7,17.55 L 8,13.45 A 1,1 0 0 0 7.13,13 H 2 v 2 h 2 v -1 h 1.46 a 1,1 0 0 1 0.84,0.45 l 3.4,5.1 A 1,1 0 0 0 10.54,20 H 16 a 1,1 0 0 0 1,-1 v -2 h 4 a 1,1 0 0 0 1,-1 v 0 a 1,1 0 0 0 -1,-1 h -5 a 1,1 0 0 0 -1,1 z"
         id="path9" />
      <g
         class="cls-15"
         clip-path="url(#clip-path-5)"
         id="g11">
        <rect
           class="cls-6"
           width="24"
           height="24"
           id="rect9"
           x="0"
           y="0" />
        <g
           class="cls-16"
           clip-path="url(#clip-path-6)"
           id="g10">
          <rect
             class="cls-6"
             x="-3"
             y="8"
             width="30"
             height="17"
             id="rect10" />
        </g>
      </g>
      <path
         class="cls-14"
         d="M 17,7 V 5 A 1,1 0 0 0 16,4 H 10.54 A 1,1 0 0 0 9.7,4.45 L 6.3,9.55 A 1,1 0 0 1 5.46,10 H 4 V 9 H 2 v 2 H 7.13 A 1,1 0 0 0 8,10.55 l 2.74,-4.1 A 1,1 0 0 1 11.54,6 H 15 v 2 a 1,1 0 0 0 1,1 h 5 A 1,1 0 0 0 22,8 V 8 A 1,1 0 0 0 21,7 Z"
         id="path11" />
      <g
         class="cls-17"
         clip-path="url(#clip-path-7)"
         id="g13">
        <rect
           class="cls-6"
           width="24"
           height="24"
           id="rect11"
           x="0"
           y="0" />
        <g
           class="cls-16"
           clip-path="url(#clip-path-6)"
           id="g12">
          <rect
             class="cls-6"
             x="-3"
             y="-1"
             width="30"
             height="17"
             id="rect12" />
        </g>
      </g>
      <circle
         class="cls-2"
         cx="10.5"
         cy="12"
         r="1.25"
         id="circle13" />
      <g
         class="cls-18"
         clip-path="url(#clip-path-9)"
         id="g15">
        <rect
           class="cls-2"
           width="24"
           height="24"
           id="rect13"
           x="0"
           y="0" />
        <g
           class="cls-10"
           clip-path="url(#clip-path-2)"
           id="g14">
          <rect
             class="cls-2"
             x="4.25"
             y="5.75"
             width="12.5"
             height="12.5"
             id="rect14" />
        </g>
      </g>
      <rect
         class="cls-2"
         x="2"
         y="18"
         width="6.52"
         height="2"
         rx="0.97000003"
         id="rect15" />
      <rect
         class="cls-2"
         x="2"
         y="4"
         width="6.52"
         height="2"
         rx="0.97000003"
         id="rect16" />
    </g>
  </g>
  <metadata
     id="metadata17">
    <rdf:RDF>
      <cc:Work
         rdf:about="">
        <dc:title>Icon_24px_CloudIoTEdge_Color</dc:title>
      </cc:Work>
    </rdf:RDF>
  </metadata>
</svg>
