<?xml version="1.0" encoding="UTF-8" standalone="no"?>
<!-- Created with Inkscape (http://www.inkscape.org/) -->

<svg
   width="128"
   height="128"
   viewBox="0 0 128 128"
   version="1.1"
   id="svg1"
   xml:space="preserve"
   inkscape:export-filename="elasticsearch.svg"
   inkscape:export-xdpi="96"
   inkscape:export-ydpi="96"
   xmlns:inkscape="http://www.inkscape.org/namespaces/inkscape"
   xmlns:sodipodi="http://sodipodi.sourceforge.net/DTD/sodipodi-0.dtd"
   xmlns="http://www.w3.org/2000/svg"
   xmlns:svg="http://www.w3.org/2000/svg"><sodipodi:namedview
     id="namedview1"
     pagecolor="#ffffff"
     bordercolor="#000000"
     borderopacity="0.25"
     inkscape:showpageshadow="2"
     inkscape:pageopacity="0.0"
     inkscape:pagecheckerboard="0"
     inkscape:deskcolor="#d1d1d1"
     inkscape:document-units="mm"
     showgrid="false"><inkscape:page
       x="0"
       y="0"
       width="128"
       height="128"
       id="page2"
       margin="0"
       bleed="0" /></sodipodi:namedview><defs
     id="defs1" /><g
     inkscape:label="Layer 1"
     inkscape:groupmode="layer"
     id="layer1"><g
       id="g1"
       transform="scale(0.125)"><circle
         cx="512"
         cy="512"
         r="512"
         style="fill:#13aa52"
         id="circle1" /><path
         d="m 648.86,449.44 c -32.34,-142.73 -108.77,-189.66 -117,-207.59 -9,-12.65 -18.12,-35.15 -18.12,-35.15 -0.15,-0.38 -0.39,-1.05 -0.67,-1.7 -0.93,12.65 -1.41,17.53 -13.37,30.29 -18.52,14.48 -113.54,94.21 -121.27,256.37 -7.21,151.24 109.25,241.36 125,252.85 l 1.79,1.27 v -0.11 c 0.1,0.76 5,36 8.44,73.34 H 526 a 726.68,726.68 0 0 1 13,-78.53 l 1,-0.65 a 204.48,204.48 0 0 0 20.11,-16.45 l 0.72,-0.65 C 594.31,691.8 654.5,620.26 653.91,506.2 a 347.07,347.07 0 0 0 -5.05,-56.76 z M 512.35,659.12 c 0,0 0,-212.12 7,-212.08 5.46,0 12.53,273.61 12.53,273.61 -9.72,-1.17 -19.53,-45.03 -19.53,-61.53 z"
         style="fill:#ffffff"
         id="path1-6" /></g></g></svg>
