<?xml version="1.0" encoding="UTF-8" standalone="no"?>
<!-- Created with Inkscape (http://www.inkscape.org/) -->

<svg
   width="128"
   height="128"
   viewBox="0 0 128 128"
   version="1.1"
   id="svg1"
   xml:space="preserve"
   inkscape:export-filename="mariadb.svg"
   inkscape:export-xdpi="96"
   inkscape:export-ydpi="96"
   xmlns:inkscape="http://www.inkscape.org/namespaces/inkscape"
   xmlns:sodipodi="http://sodipodi.sourceforge.net/DTD/sodipodi-0.dtd"
   xmlns="http://www.w3.org/2000/svg"
   xmlns:svg="http://www.w3.org/2000/svg"><sodipodi:namedview
     id="namedview1"
     pagecolor="#ffffff"
     bordercolor="#000000"
     borderopacity="0.25"
     inkscape:showpageshadow="2"
     inkscape:pageopacity="0.0"
     inkscape:pagecheckerboard="0"
     inkscape:deskcolor="#d1d1d1"
     inkscape:document-units="mm"
     showgrid="false"><inkscape:page
       x="0"
       y="0"
       width="128"
       height="128"
       id="page2"
       margin="0"
       bleed="0" /></sodipodi:namedview><defs
     id="defs1" /><g
     inkscape:label="Layer 1"
     inkscape:groupmode="layer"
     id="layer1"><path
       fill="#336791"
       fill-rule="evenodd"
       d="m 126.06127,77.495246 c -0.47264,-3.064771 -3.04692,-5.071892 -6.04132,-5.20738 -1.08391,-0.04936 -2.18462,0.06407 -3.26538,0.201657 -1.30552,0.165947 -2.59528,0.460031 -3.89765,0.654336 -0.90011,0.134438 -1.81282,0.196406 -2.71187,0.288832 l -0.0221,-0.116583 c 1.67838,-3.169801 3.42712,-6.304942 5.01517,-9.519905 1.2173,-2.466101 2.2592,-5.021477 3.33575,-7.555848 1.78131,-4.199093 3.20446,-8.528423 4.3829,-12.928124 1.12907,-4.212747 2.09534,-8.471707 2.39888,-12.842 0.12183,-1.745596 0.20586,-3.498544 0.19641,-5.24624 -0.008,-1.393747 -0.1586,-2.789593 -0.29829,-4.179138 -0.15754,-1.592253 -0.63858,-3.101532 -1.30447,-4.554094 -0.87805,-1.913644 -2.23924,-3.483841 -3.67184,-4.975264 -1.14693,-1.19419 -2.40834,-2.2822986 -3.65924,-3.3693576 C 114.73485,6.5948464 112.72983,5.356545 110.64709,4.2568825 108.28077,3.0070273 105.79366,2.0291994 103.20047,1.3685616 101.63238,0.96839787 100.02857,0.67116337 98.440521,0.35397327 97.869161,0.23844047 97.296745,2.2670089e-5 96.725383,2.2670089e-5 H 85.969276 c -0.388611,0 -0.77407,0.200606999911 -1.165831,0.244719499911 C 82.228113,0.53147367 79.683239,1.0167116 77.211887,1.7823792 76.287624,2.0691107 75.443184,1.8884594 74.565135,1.8075864 73.891894,1.7456188 73.230206,1.5649675 72.556964,1.5313579 69.992135,1.4032215 67.424155,1.2152181 64.860377,1.2425258 62.403729,1.267733 59.972288,1.6720979 57.594412,2.3474398 55.604096,2.9125004 53.656843,3.6025465 51.873436,4.6486438 51.109869,5.096071 50.504897,5.0120471 49.715073,4.7841323 47.060968,4.0184647 44.387959,3.2990103 41.691842,2.6950886 40.011365,2.3190818 38.283624,2.1321286 36.567436,1.9525276 34.922669,1.7813289 33.265298,1.6783997 31.612128,1.6437398 29.996769,1.60908 28.369856,1.6101303 26.761849,1.7529709 24.200171,1.9808857 21.686806,2.5018337 19.243812,3.3420725 16.530891,4.2747376 14.043784,5.6264717 11.801397,7.4014754 9.5253997,9.2027374 7.6999813,11.402062 6.231664,13.913326 c -1.5470897,2.649903 -2.6078912,5.486759 -3.2674786,8.466456 -0.3571015,1.614309 -0.5829157,3.273781 -0.8276352,4.913297 -0.076672,0.510445 0.7688185,1.02089 -0.2814798,1.529234 v 7.135728 c 1.0502983,0.474735 0.2184619,0.94842 0.2793792,1.424205 0.1459915,1.143775 0.2751782,2.297003 0.4684331,3.432375 0.3056369,1.797061 0.6679899,3.58887 1.0376949,5.374378 0.5156966,2.494459 1.0523991,4.986817 1.6237615,7.468672 0.4159182,1.806514 0.8896028,3.602524 1.3853437,5.389082 0.7572652,2.728675 1.5029769,5.462602 2.3589699,8.160819 0.795076,2.507063 1.7056853,4.978415 2.6089413,7.449767 1.250906,3.418722 2.748632,6.727162 4.544642,9.898013 1.553391,2.745486 3.328396,5.316616 5.709423,7.431918 1.569147,1.393746 3.315793,2.46505 5.349171,3.000702 1.597504,0.42012 3.221265,0.470534 4.85658,0.135489 1.895789,-0.388611 3.574166,-1.204692 5.06664,-2.42724 0.171199,-0.14074 0.359202,-0.24787 0.56191,0.0105 0.771969,0.977828 1.805463,1.630063 2.88622,2.194074 2.916679,1.520835 6.094882,1.976665 9.3235,2.162565 0.781422,0.0452 1.571246,-0.0672 2.35897,-0.0893 1.534486,-0.042 3.02591,-0.34135 4.493177,-0.765674 0.768818,-0.222663 1.519782,-0.505193 2.302254,-0.768818 0.04096,0.832886 0.09348,1.635322 0.117634,2.437742 l 0.109231,4.37555 c 0.01995,0.66589 0.04621,1.33388 0.10818,1.99662 0.158596,1.70883 0.31404,3.41872 0.517798,5.1223 0.14179,1.17424 0.288832,2.35792 0.56506,3.5038 0.555608,2.31381 1.308672,4.5667 2.266544,6.75132 0.940018,2.14366 2.291752,3.95332 4.096164,5.4458 2.331663,1.92834 5.06454,2.75073 8.015879,2.90302 1.220446,0.0641 2.475553,0.004 3.677095,-0.21426 1.904191,-0.34555 3.804181,-0.78037 5.657958,-1.33913 3.771621,-1.13852 7.031748,-3.10468 9.46739,-6.28184 1.386394,-1.81071 2.524918,-3.76952 3.255925,-5.93208 0.602872,-1.78656 1.171082,-3.59097 1.622712,-5.41954 0.3571,-1.44101 0.53355,-2.92718 0.75096,-4.39865 0.14389,-0.97363 0.23002,-1.95671 0.32034,-2.93769 0.14705,-1.5933 0.29724,-3.18556 0.403319,-4.78201 0.0735,-1.111218 0.0704,-2.227686 0.11448,-3.341002 0.0137,-0.339246 0.0683,-0.676392 0.0998,-1.014588 0.0294,-0.312989 0.18695,-0.42117 0.50624,-0.415918 1.12487,0.0168 2.25184,0.04621 3.37356,-0.0042 1.25721,-0.05672 2.52597,-0.110281 3.76322,-0.31824 1.76135,-0.295134 3.5143,-0.66799 5.24099,-1.120669 2.04073,-0.533551 3.91236,-1.489323 5.71362,-2.578482 2.0985,-1.267716 4.01109,-2.754939 5.56344,-4.670683 1.34963,-1.671025 1.98926,-3.602524 1.66367,-5.711523 z m -3.58362,1.031393 c -0.0693,0.961023 -0.50939,1.784457 -1.14798,2.488157 -3.0133,3.322094 -6.79333,5.337617 -11.11741,6.330154 -1.64266,0.376007 -3.33784,0.571363 -5.01937,0.726807 -1.43156,0.132337 -2.88412,0.154394 -4.32093,0.101879 -1.056599,-0.03991 -2.104799,-0.28148 -3.184504,-0.436924 -0.108181,0.98728 -0.21111,2.015522 -0.336095,3.041664 l -0.503093,3.933368 c -0.152294,1.246704 -0.270977,2.497606 -0.427472,3.743266 -0.153343,1.20889 -0.344498,2.41358 -0.505193,3.62248 -0.150193,1.12592 -0.260474,2.25709 -0.427472,3.38091 -0.257323,1.72249 -0.503093,3.44918 -0.839188,5.15802 -0.403315,2.04283 -1.021941,4.02159 -2.031278,5.86381 -1.230949,2.24869 -2.976546,3.96173 -5.197927,5.23049 -2.289651,1.30867 -4.792512,1.98927 -7.330033,2.55853 -1.79601,0.40331 -3.646636,0.46948 -5.465753,0.30563 -3.155097,-0.28568 -5.848062,-1.63531 -7.883541,-4.08146 -1.943052,-2.33481 -3.258026,-5.01097 -3.728559,-8.04003 -0.224764,-1.43996 -0.38651,-2.89252 -0.515697,-4.34404 -0.142841,-1.6143 -0.240518,-3.23386 -0.314039,-4.85237 -0.09348,-2.05544 -0.161746,-4.11088 -0.206909,-6.16631 -0.05567,-2.527018 -0.07352,-5.054036 -0.109231,-7.581055 l -0.0063,-0.09663 c -1.285565,0.770919 -2.549074,1.615359 -3.889255,2.310657 -1.569146,0.815031 -3.273781,1.287666 -5.039332,1.421054 -1.384294,0.105029 -2.786442,0.200607 -4.164434,0.09033 -2.259192,-0.181701 -4.516283,-0.535652 -6.539158,-1.647918 -0.820283,-0.451628 -1.676277,-1.000935 -2.241337,-1.72249 -1.354885,-1.728791 -0.705801,-3.913417 1.33703,-4.964766 1.411601,-0.727857 2.952389,-1.031393 4.482674,-1.385344 1.329678,-0.307737 2.653054,-0.657486 3.950172,-1.080757 1.283465,-0.420119 2.093245,-1.460965 2.892522,-2.481855 l 1.26666,-1.629013 c -0.5283,-0.05567 -1.026141,-0.112382 -1.523983,-0.158595 -1.511379,-0.142841 -2.953439,-0.558759 -4.332481,-1.170033 -1.180536,-0.521998 -1.198391,-0.578714 -2.063837,0.360253 -1.44521,1.569146 -2.85051,3.175052 -4.266312,4.770456 -1.041896,1.173183 -2.077491,2.353718 -3.114135,3.530053 -1.027192,1.16373 -1.989265,2.393635 -3.09523,3.476493 -1.642667,1.608007 -3.622479,2.575332 -5.984601,2.466101 -1.51558,-0.06932 -2.903025,-0.600771 -4.150779,-1.469368 -2.575333,-1.79391 -4.310426,-4.303078 -5.890075,-6.938277 C 17.46986,79.813257 15.916468,76.215984 14.58679,72.519984 13.666729,69.965658 12.742466,67.409231 11.938988,64.818145 11.06619,62.002295 10.300522,59.150734 9.5474577,56.300224 8.9781937,54.149211 8.4730007,51.980345 7.9909137,49.807277 7.4437085,47.335925 6.9175089,44.860371 6.453277,42.372214 6.140288,40.692787 5.9585864,38.989203 5.7054645,37.298222 5.3641174,35.019074 5.3010995,32.718921 5.4250348,30.43032 5.5353161,28.368584 5.8315003,26.3121 6.1255839,24.264018 6.5330997,21.430312 7.466815,18.756252 8.8101467,16.231335 c 0.822383,-1.54709 1.8432733,-2.95344 3.0238093,-4.260011 1.937801,-2.1447086 4.283117,-3.6949496 6.892059,-4.8586806 1.823318,-0.81293 3.749565,-1.3023695 5.712574,-1.6846781 2.913528,-0.5671612 5.853314,-0.5451049 8.794149,-0.4841876 1.285566,0.026257 2.56588,0.260474 3.850395,0.3875601 2.765436,0.2751782 5.476256,0.8570436 8.152417,1.5754476 1.950404,0.523049 3.860897,1.200491 5.795547,1.788658 0.194305,0.05882 0.478936,0.05357 0.637531,-0.05041 2.621545,-1.710936 5.486759,-2.8400069 8.533675,-3.4859405 1.156379,-0.2447196 2.349518,-0.35185 3.532154,-0.4274715 1.437859,-0.091376 2.88727,-0.1753998 4.321978,-0.092426 1.72459,0.098728 3.440778,0.3529003 5.154865,0.5881672 0.831837,0.1134322 1.643717,0.4022643 2.477654,0.4810367 0.399114,0.037811 0.822384,-0.2541722 1.244604,-0.35185 2.152062,-0.4967912 4.294671,-1.0502985 6.465638,-1.4431101 1.616409,-0.291983 3.267478,-0.4295721 4.911195,-0.524099 1.832771,-0.1050298 3.679196,-0.1817016 5.510916,-0.093476 2.315909,0.1113316 4.615014,0.4411253 6.884703,0.9694255 2.81165,0.6543359 5.50882,1.6048561 8.0726,2.9240307 1.91574,0.98518 3.73696,2.127905 5.37648,3.5332036 1.07445,0.922162 2.17411,1.832771 3.14459,2.859963 1.19734,1.26666 2.41884,2.53437 3.1698,4.157081 0.56506,1.223598 0.96837,2.490258 1.07971,3.830439 0.13864,1.665773 0.30668,3.337849 0.29093,5.005723 -0.0147,1.595403 -0.23212,3.189756 -0.38651,4.780958 -0.3508,3.627731 -1.13957,7.17669 -2.09745,10.678385 -0.79192,2.892522 -1.71723,5.753535 -2.71922,8.580939 -0.92321,2.60579 -1.98821,5.164318 -3.06477,7.712342 -0.79508,1.884235 -1.65107,3.748515 -2.58163,5.569733 -1.76135,3.45128 -3.59308,6.866851 -5.71153,10.117525 -0.3655,0.56191 -0.7121,1.137473 -1.0692,1.710936 0.92426,0.623877 1.97141,0.84339 3.02591,0.956822 1.00303,0.109231 2.02602,0.17435 3.02801,0.09978 1.60381,-0.118683 3.20236,-0.347648 4.79671,-0.571362 1.57965,-0.220563 3.12779,-0.67009 4.74945,-0.551407 1.61956,0.117634 2.77804,1.348584 2.66776,2.866265 z M 99.357431,75.004988 c -0.68795,-0.888552 -1.38955,-1.766602 -2.062786,-2.665657 -1.056601,-1.411602 -1.815967,-2.9881 -2.578483,-4.57195 -0.722606,-1.500876 -1.609058,-2.92193 -2.370524,-4.406002 -1.328628,-2.588986 -2.681412,-5.169569 -3.90501,-7.808969 -1.538687,-3.315793 -2.751782,-6.749218 -3.13409,-10.422112 -0.161746,-1.554442 -0.202708,-3.106783 0.111331,-4.646521 0.503093,-2.458748 1.787608,-4.381845 3.947022,-5.70102 2.002919,-1.223598 4.234803,-1.61851 6.521303,-1.742445 1.418954,-0.07667 2.844207,-0.01365 4.316726,-0.01365 l -0.0494,-0.248921 C 99.237661,30.863047 98.381661,28.915794 97.379679,27.046262 95.965977,24.407913 94.157363,22.028987 92.14289,19.82336 90.650416,18.190146 89.034007,16.674565 87.263204,15.335434 85.521809,14.01731 83.686937,12.839925 81.729181,11.876801 79.394367,10.728825 76.962926,9.8413234 74.411751,9.2752124 c -2.451396,-0.544055 -4.918548,-0.876999 -7.432962,-0.904307 -2.14471,-0.02311 -4.275765,0.07352 -6.364809,0.557708 -3.152996,0.729958 -6.037116,2.0281266 -8.546279,4.1308236 -1.401098,1.174234 -2.623645,2.492359 -3.6939,3.959626 -1.256157,1.72564 -2.269695,3.58887 -3.136191,5.542425 -1.188938,2.680362 -2.00502,5.469954 -2.562728,8.337269 -0.27938,1.429457 -0.497842,2.871516 -0.720505,4.312526 -0.07772,0.504143 -0.08402,1.01984 -0.129187,1.597504 0.387561,-0.201657 0.66694,-0.357102 0.952621,-0.495741 l 0.929514,-0.416969 c 3.143544,-1.437858 6.400519,-2.363171 9.901164,-2.257091 1.487223,0.04516 2.910377,0.339246 4.232703,0.990432 2.536471,1.250905 4.020543,3.377759 4.665426,6.069674 0.445326,1.857979 0.749913,3.752717 1.046097,5.642204 0.232116,1.475669 0.469484,2.967093 0.496791,4.455366 0.03886,2.175168 -0.07142,4.354538 -0.190104,6.528656 -0.100828,1.852726 -0.487338,3.676044 -1.134322,5.404836 -1.176334,3.143543 -2.487107,6.235622 -3.711755,9.36131 -0.404365,1.032443 -0.715253,2.101647 -1.097562,3.23702 0.590268,0 1.069204,-0.0042 1.54814,0.0021 0.186953,0.0032 0.378108,0.0084 0.558759,0.05146 1.4074,0.331895 2.627847,0.969426 3.628781,2.052283 1.33493,1.44101 2.035479,3.122538 2.071189,5.068741 0.01996,1.078657 -0.09348,2.160464 -0.08823,3.239121 0.02206,5.026733 0.05987,10.053462 0.101879,15.079141 0.0074,0.82134 0.04831,1.64372 0.10713,2.464 0.122885,1.71724 0.24682,3.43553 0.414868,5.14857 0.117634,1.21519 0.28148,2.42829 0.473685,3.63508 0.272027,1.70989 1.050298,3.23177 1.933599,4.68643 0.760416,1.25091 1.748747,2.31381 3.051117,3.04692 2.212979,1.24565 4.596107,1.34963 6.998139,0.89065 1.622711,-0.30984 3.216014,-0.80768 4.791462,-1.32127 1.553391,-0.5052 2.95659,-1.33283 4.135025,-2.47241 1.103864,-1.07025 1.887386,-2.37472 2.415687,-3.81468 1.025091,-2.79275 1.344382,-5.73358 1.768702,-8.65131 0.158595,-1.09231 0.296184,-2.18777 0.441126,-3.28218 0.164897,-1.24566 0.331894,-2.49026 0.491539,-3.73487 0.117634,-0.92741 0.224764,-1.856926 0.338196,-2.78434 0.161746,-1.331778 0.332945,-2.662506 0.487339,-3.995335 0.118684,-1.030343 0.219512,-2.064887 0.324542,-3.09733 0.135489,-1.319181 0.28148,-2.638356 0.398063,-3.959631 0.09033,-1.003035 0.05357,-2.023925 0.231066,-3.008055 0.326643,-1.804413 1.179485,-3.339949 2.77909,-4.332481 0.669035,-0.414868 1.424195,-0.687946 2.166765,-1.038745 z M 38.863389,67.598283 c -0.799278,-1.892638 -1.279264,-3.865098 -1.422105,-5.904778 -0.134438,-1.916795 0.09348,-3.826237 0.289883,-5.73463 0.191154,-1.848525 0.349749,-3.705453 0.405415,-5.562381 0.09243,-3.052167 -0.113432,-6.100133 -0.259424,-9.1502 -0.08822,-1.815966 0.122885,-3.653988 0.284631,-5.474156 0.145992,-1.639516 0.327693,-3.283233 0.637531,-4.898592 0.519898,-2.71082 1.209944,-5.38278 2.190923,-7.972816 0.931615,-2.455598 2.001869,-4.847127 3.513249,-7.000239 1.035594,-1.47672 2.210878,-2.856812 3.339949,-4.299922 L 47.508395,11.481885 C 43.834451,10.315003 40.10064,9.4033444 36.260749,9.0052814 c -1.815966,-0.188003 -3.638234,-0.298285 -5.459452,-0.406465 -0.558758,-0.03361 -1.12592,0.04201 -1.686779,0.09558 -1.388495,0.132337 -2.793794,0.184852 -4.160232,0.445326 -2.325362,0.442176 -4.556196,1.1857866 -6.622133,2.3967816 -1.854827,1.087059 -3.41242,2.492358 -4.716891,4.178087 -1.441009,1.861129 -2.410435,3.965927 -3.106783,6.210415 -0.8223833,2.647802 -1.2141453,5.372277 -1.3202253,8.121958 -0.09243,2.410435 -0.138639,4.834524 0.277279,7.235506 0.309838,1.787609 0.516747,3.594122 0.8580943,5.374378 0.465282,2.42724 0.964174,4.849228 1.540788,7.251261 0.824484,3.438677 1.647918,6.882606 2.624696,10.279271 0.934765,3.254875 1.989265,6.480342 3.13199,9.666947 0.934765,2.600539 2.015522,5.152765 3.154046,7.67138 0.741511,1.640567 1.639516,3.219165 2.580584,4.755752 1.000935,1.631114 2.139458,3.179254 3.684448,4.36294 1.949354,1.49458 3.458632,1.726696 5.439495,0.08717 0.848642,-0.70265 1.565995,-1.570197 2.304355,-2.396781 1.173184,-1.312874 2.305405,-2.661457 3.473337,-3.978531 1.487223,-1.678377 2.993351,-3.338899 4.487926,-5.008874 0.31614,-0.3529 0.619676,-0.716303 0.927413,-1.073405 l -0.508344,-0.446375 c -1.857978,-1.784457 -3.296887,-3.853545 -4.300972,-6.22932 z M 95.251814,17.636634 c 1.214145,1.424205 2.389429,2.890422 3.475437,4.415455 2.100599,2.950289 3.778969,6.135844 5.015179,9.544062 0.5472,1.501927 0.98413,3.018558 0.78877,4.662275 -0.13549,1.151128 -0.12394,2.31906 -0.22581,3.476488 -0.0851,0.963124 -0.23737,1.920996 -0.36236,2.880969 -0.18695,1.447312 -0.45793,2.890422 -0.5388,4.344035 -0.0767,1.383243 0.003,2.78119 0.0903,4.167584 0.0882,1.40845 0.27832,2.810599 0.40751,4.216949 0.14599,1.594353 0.3424,3.188706 0.38756,4.78621 0.0368,1.311823 -0.0798,2.632048 -0.1943,3.94177 -0.13654,1.577548 -0.53671,3.104682 -1.13328,4.569849 -0.41906,1.031393 -0.92006,2.031277 -1.39374,3.063721 l 0.1901,0.201657 0.28883,0.223713 0.29094,-0.520948 c 2.45665,-3.8735 4.64232,-7.896144 6.53495,-12.07108 1.2173,-2.688764 2.35792,-5.415339 3.45234,-8.156618 1.70568,-4.268413 3.05531,-8.65656 4.09931,-13.131882 0.46843,-2.009221 0.82659,-4.048901 1.14483,-6.088581 0.24787,-1.594353 0.45477,-3.207611 0.50099,-4.816669 0.0494,-1.706735 -0.0452,-3.427123 -0.20271,-5.129657 -0.11763,-1.285566 -0.43482,-2.579533 -1.2404,-3.62458 -1.29502,-1.682579 -2.69297,-3.291636 -4.41231,-4.564598 -1.44731,-1.072354 -2.88937,-2.172017 -4.44276,-3.074223 -2.46295,-1.4284056 -5.12861,-2.3799766 -7.913999,-3.0280106 -2.71817,-0.63333 -5.472053,-0.906408 -8.243791,-0.964174 -1.634264,-0.03466 -3.275881,0.14074 -4.906994,0.294084 -1.47777,0.138639 -2.946088,0.374956 -4.43436,0.570312 1.596453,0.898005 3.170851,1.696232 4.655973,2.6372986 3.122537,1.977712 5.920532,4.357689 8.322565,7.174589 z M 54.684035,73.010471 c 1.009337,-3.227567 2.384177,-6.309143 3.715956,-9.409624 1.079707,-2.514415 1.669974,-5.163267 1.86638,-7.88354 0.09768,-1.341232 0.07037,-2.699268 0.0042,-4.0447 -0.07457,-1.494575 -0.194305,-2.993351 -0.411717,-4.473221 -0.279379,-1.891588 -0.597619,-3.784226 -1.045047,-5.641153 -0.485237,-2.009221 -1.708835,-3.408219 -3.805231,-3.923916 -1.277163,-0.314039 -2.545924,-0.301435 -3.83674,-0.09768 -3.152996,0.496791 -6.039217,1.658421 -8.727981,3.359905 -0.540904,0.342397 -0.838138,0.618625 -0.744661,1.394796 0.197456,1.643717 0.240518,3.313692 0.233166,4.973163 -0.0105,2.348468 -0.110282,4.696935 -0.199557,7.044352 -0.02941,0.764618 -0.13969,1.525034 -0.221613,2.2865 -0.126036,1.165831 -0.368655,2.330612 -0.361303,3.494343 0.0074,1.199441 0.130237,2.42724 0.42117,3.58887 0.924263,3.683397 2.882019,6.697754 6.090681,8.824608 1.973511,1.307622 4.157081,1.967209 6.553863,2.092195 0.162796,-0.550357 0.307737,-1.070255 0.468433,-1.584901 z m -3.766371,-31.60033 c -0.42222,-0.886452 -0.180651,-1.620611 0.798227,-1.960908 0.238418,-0.08402 0.484188,-0.173299 0.732058,-0.197456 0.340297,-0.03361 0.686896,-0.0084 1.031393,-0.0084 1.241453,0.0063 2.435643,0.179601 3.460734,0.969425 0.657487,0.506244 0.833937,1.178435 0.408566,1.868481 -0.603922,0.978878 -1.525033,1.470418 -2.656205,1.564945 -1.782356,0.148092 -3.033262,-0.682694 -3.774773,-2.236085 z M 100.3237,41.086649 c 0.14284,-1.180536 0.25733,-2.364222 0.40332,-3.544758 0.0588,-0.474735 -0.19116,-0.602871 -0.58922,-0.614424 -1.251949,-0.03466 -2.503909,-0.07877 -3.755865,-0.101879 -1.411601,-0.02521 -2.785391,0.201657 -4.091963,0.738359 -1.449412,0.59657 -2.553275,1.552342 -3.003853,3.12989 -0.336096,1.176334 -0.426422,2.351618 -0.307738,3.581518 0.180651,1.874783 0.59657,3.6939 1.253006,5.436345 0.875949,2.332713 1.79286,4.664375 2.888321,6.899411 1.484072,3.02591 3.163499,5.955192 4.739993,8.934889 0.42117,0.795076 0.77512,1.624812 1.21415,2.553275 0.91901,-1.946203 1.367489,-3.894506 1.418949,-5.904778 0.0431,-1.69098 -0.0924,-3.389313 -0.19115,-5.081344 -0.062,-1.035594 -0.20796,-2.064887 -0.308789,-3.09838 -0.14074,-1.439959 -0.35395,-2.878868 -0.38651,-4.321979 -0.0326,-1.467267 0.0714,-2.942936 0.19746,-4.408102 0.11868,-1.4053 0.350799,-2.799046 0.519889,-4.198043 z m -2.824247,-1.136423 c -0.465282,1.284515 -1.459915,2.009221 -2.749682,2.222431 -1.202591,0.197456 -2.256041,-0.24682 -3.039564,-1.205742 -0.557708,-0.682694 -0.344497,-1.491424 0.49154,-1.952505 0.959973,-0.531451 2.015523,-0.66589 3.260127,-0.746763 0.338196,0.06197 0.847591,0.113433 1.331778,0.252072 0.70265,0.198507 0.962074,0.726807 0.705801,1.430507 z M 60.29578,79.504467 c -0.687946,-0.56191 -1.597504,-0.594469 -2.25184,0.02206 -0.811881,0.766718 -1.526084,1.643717 -2.240287,2.508113 -0.824484,0.998834 -1.597504,2.037579 -2.661456,2.811649 -1.54814,1.12487 -3.352553,1.591202 -5.166419,2.032328 -1.44206,0.350804 -2.890421,0.676397 -4.336682,1.013543 l -0.01785,0.186953 c 0.429572,0.198506 0.84549,0.446377 1.292917,0.588167 2.205627,0.698449 4.449065,1.046097 6.779677,0.848641 1.682578,-0.14284 3.285334,-0.509395 4.804065,-1.229899 2.090094,-0.990432 3.698101,-2.559583 5.06559,-4.385002 0.228965,-0.304586 0.332945,-0.755164 0.360252,-1.147976 0.09348,-1.387444 -0.611273,-2.418837 -1.627962,-3.248573 z m 54.354,0.552457 c -1.77501,0.190104 -3.55211,0.391761 -5.33237,0.49364 -0.85914,0.04936 -1.73089,-0.114482 -2.59844,-0.184852 -1.45466,-0.117634 -2.87467,-0.441126 -4.10456,-1.218347 -0.71211,-0.448477 -1.30343,-0.498891 -2.05964,-0.244719 -1.079709,0.363403 -1.960909,0.91586 -2.221379,2.085893 -0.1775,0.790874 -0.24157,1.610107 -0.31299,2.419887 -0.0136,0.142841 0.1649,0.405416 0.30144,0.441126 0.83288,0.219512 1.66997,0.478936 2.521759,0.555608 1.0461,0.09453 2.1111,0.06407 3.16455,0.01155 1.13747,-0.05672 2.2823,-0.130237 3.40297,-0.319291 2.6415,-0.443226 5.19688,-1.165831 7.46657,-2.663557 0.81818,-0.540904 1.62901,-1.093361 2.44194,-1.640566 l -0.0672,-0.115533 c -0.86755,0.129187 -1.7309,0.286732 -2.60264,0.379158 z"
       clip-rule="evenodd"
       id="path1"
       style="stroke-width:1.0503" /></g></svg>
