<?xml version="1.0" encoding="UTF-8" standalone="no"?>
<!-- Created with Inkscape (http://www.inkscape.org/) -->

<svg
   width="128"
   height="128"
   viewBox="0 0 128 128"
   version="1.1"
   id="svg1"
   xml:space="preserve"
   inkscape:export-filename="mongodb.svg"
   inkscape:export-xdpi="96"
   inkscape:export-ydpi="96"
   xmlns:inkscape="http://www.inkscape.org/namespaces/inkscape"
   xmlns:sodipodi="http://sodipodi.sourceforge.net/DTD/sodipodi-0.dtd"
   xmlns="http://www.w3.org/2000/svg"
   xmlns:svg="http://www.w3.org/2000/svg"><sodipodi:namedview
     id="namedview1"
     pagecolor="#ffffff"
     bordercolor="#000000"
     borderopacity="0.25"
     inkscape:showpageshadow="2"
     inkscape:pageopacity="0.0"
     inkscape:pagecheckerboard="0"
     inkscape:deskcolor="#d1d1d1"
     inkscape:document-units="mm"
     showgrid="false"><inkscape:page
       x="0"
       y="0"
       width="128"
       height="128"
       id="page2"
       margin="0"
       bleed="0" /></sodipodi:namedview><defs
     id="defs1" /><g
     inkscape:label="Layer 1"
     inkscape:groupmode="layer"
     id="layer1"><path
       d="M 122.85281,51.20646 H 81.90705 c -1.36324,0.009 -2.67315,-0.52915 -3.63712,-1.49313 -0.96398,-0.96397 -1.50173,-2.27388 -1.49312,-3.63712 V 5.13045 c 2e-5,-1.3577 -0.5415,-2.65932 -1.50454,-3.61634 C 74.30922,0.55708 73.00423,0.02373 71.64656,0.03227 h -15.3266 c -1.35767,-0.009 -2.66267,0.52481 -3.62571,1.48184 -0.96304,0.95702 -1.50457,2.25864 -1.50454,3.61634 v 40.94576 c 0.009,1.36324 -0.52914,2.67315 -1.49312,3.63712 -0.96398,0.96398 -2.27388,1.50173 -3.63712,1.49313 H 30.732864 c -1.363243,0.009 -2.673144,-0.52915 -3.637123,-1.49313 -0.963978,-0.96397 -1.501722,-2.27388 -1.493121,-3.63712 V 5.13045 C 25.61122,3.7672 25.073478,2.4573 24.109499,1.49332 23.145521,0.52935 21.83562,-0.0084 20.472375,9.9999097e-5 H 5.1137072 C 3.7560122,9.9999097e-5 2.4543862,0.5417 1.4973662,1.50474 0.54034421,2.46778 0.00698821,3.77278 0.01542521,5.13045 v 117.73911 c -0.0085,1.36324 0.529245,2.67314 1.49322199,3.63712 0.963978,0.96398 2.273879,1.50172 3.637124,1.49322 H 122.85281 c 1.36325,0.008 2.67315,-0.52924 3.63713,-1.49322 0.96397,-0.96398 1.50172,-2.27388 1.49312,-3.63712 V 56.43289 c 0.0347,-1.37978 -0.49142,-2.7147 -1.45828,-3.69969 -0.96686,-0.98498 -2.29177,-1.53586 -3.67197,-1.52674 z m -20.58503,43.47882 c 0.008,2.03798 -0.79516,3.99542 -2.23323,5.43951 -1.43808,1.44409 -3.39214,2.25585 -5.43014,2.25585 H 84.34392 c -2.03801,0 -3.99207,-0.81176 -5.43015,-2.25585 C 77.4757,98.6807 76.67209,96.72326 76.68055,94.68528 V 84.45685 c -0.008,-2.03798 0.79515,-3.99542 2.23322,-5.43951 1.43808,-1.44409 3.39214,-2.25586 5.43015,-2.25586 h 10.26049 c 2.038,0 3.99206,0.81177 5.43014,2.25586 1.43807,1.44409 2.24169,3.40153 2.23323,5.43951 z"
       fill="#ff6600"
       id="path1"
       style="stroke-width:0.49988" /></g></svg>
