<?xml version="1.0" encoding="UTF-8" standalone="no"?>
<!-- Created with Inkscape (http://www.inkscape.org/) -->

<svg
   width="128"
   height="128"
   viewBox="0 0 128 128"
   version="1.1"
   id="svg1"
   xml:space="preserve"
   inkscape:export-filename="redis.jpg"
   inkscape:export-xdpi="96"
   inkscape:export-ydpi="96"
   xmlns:inkscape="http://www.inkscape.org/namespaces/inkscape"
   xmlns:sodipodi="http://sodipodi.sourceforge.net/DTD/sodipodi-0.dtd"
   xmlns="http://www.w3.org/2000/svg"
   xmlns:svg="http://www.w3.org/2000/svg"><sodipodi:namedview
     id="namedview1"
     pagecolor="#ffffff"
     bordercolor="#000000"
     borderopacity="0.25"
     inkscape:showpageshadow="2"
     inkscape:pageopacity="0.0"
     inkscape:pagecheckerboard="0"
     inkscape:deskcolor="#d1d1d1"
     inkscape:document-units="mm"
     showgrid="false"><inkscape:page
       x="0"
       y="0"
       width="128"
       height="128"
       id="page2"
       margin="0"
       bleed="0" /></sodipodi:namedview><defs
     id="defs1" /><g
     inkscape:label="Layer 1"
     inkscape:groupmode="layer"
     id="layer1"><g
       id="g1"
       transform="matrix(1.0196989,0,0,1.0196989,-1.2224821,-1.2695947)"><path
         fill="#a41e11"
         d="m 121.8,93.099989 c -6.7,3.5 -41.400009,17.700001 -48.800008,21.600011 -7.4,3.9 -11.5,3.8 -17.300003,1 C 49.899994,112.9 13,98.09999 6.2999991,94.89999 2.9999998,93.299991 1.3,91.999989 1.3,90.69999 V 77.999993 c 0,0 47.999993,-10.500002 55.799991,-13.200001 7.800002,-2.800002 10.4,-2.9 17.000002,-0.500001 6.599998,2.4 46.100007,9.5 52.600007,11.900001 v 12.499999 c 0,1.3 -1.5,2.699998 -4.9,4.399998 z"
         id="path1"
         style="stroke-width:1" /><path
         fill="#d82c20"
         d="m 121.8,80.499993 c -6.7,3.5 -41.400009,17.699998 -48.800008,21.599997 -7.4,3.9 -11.5,3.8 -17.300003,1 C 49.899994,100.29999 13,85.399991 6.2999991,82.199993 -0.29999998,78.999992 -0.49999993,76.799992 5.999999,74.299992 c 6.500001,-2.6 43.199995,-17.000001 50.999991,-19.7 7.800002,-2.799998 10.400003,-2.899998 17.000003,-0.500001 6.599999,2.4 41.100007,16.100001 47.600007,18.500002 6.7,2.4 6.9,4.399997 0.2,7.9 z"
         id="path2"
         style="stroke-width:1" /><path
         fill="#a41e11"
         d="m 121.8,72.499991 c -6.7,3.500002 -41.400009,17.699999 -48.800008,21.599999 -7.4,3.799999 -11.5,3.799999 -17.300003,1 C 49.899994,92.29999 13,77.399991 6.2999991,74.199992 2.9999998,72.599993 1.3,71.299993 1.3,69.999991 v -12.7 c 0,0 47.999993,-10.499997 55.799991,-13.199996 7.800002,-2.799999 10.4,-2.899999 17.000002,-0.499999 C 80.699991,45.999994 120.2,53.099991 126.7,55.499991 v 12.500001 c 0,1.3 -1.5,2.699997 -4.9,4.499999 z"
         id="path3"
         style="stroke-width:1" /><path
         fill="#d82c20"
         d="m 121.8,59.799991 c -6.7,3.500002 -41.400009,17.700001 -48.800008,21.6 -7.4,3.800001 -11.5,3.800001 -17.300003,0.999999 C 49.899994,79.599993 13,64.69999 6.2999991,61.499992 -0.39999996,58.299991 -0.49999993,56.09999 5.999999,53.599992 12.5,50.999991 49.199994,36.599995 56.99999,33.899998 c 7.800002,-2.800001 10.400003,-2.9 17.000003,-0.500001 C 80.599992,35.799998 115.1,49.499994 121.6,51.899994 c 6.7,2.399997 6.9,4.399998 0.2,7.899997 z"
         id="path4"
         style="stroke-width:1" /><path
         fill="#a41e11"
         d="m 121.8,50.999991 c -6.7,3.5 -41.400009,17.700001 -48.800008,21.600002 -7.4,3.799998 -11.5,3.799998 -17.300003,1 C 49.899994,70.899993 13,55.999991 6.2999991,52.799992 2.9999998,51.199994 1.2,49.899994 1.2,48.599993 V 35.899998 c 0,0 47.999994,-10.499998 55.79999,-13.199998 7.800002,-2.8 10.400003,-2.9 17.000003,-0.5 6.599999,2.4 46.099997,9.499998 52.599997,11.899997 V 46.599993 C 126.70004,47.899994 125.2,49.199994 121.8,50.999991 Z"
         id="path5"
         style="stroke-width:1" /><path
         fill="#d82c20"
         d="m 121.8,38.299996 c -6.7,3.5 -41.400009,17.699995 -48.800008,21.599996 -7.4,3.800001 -11.5,3.800001 -17.300003,0.999999 C 49.899994,58.099991 13,43.299996 6.2999991,40.099996 -0.39999996,36.899998 -0.49999993,34.699998 5.999999,32.199998 12.5,29.599998 49.199994,15.199999 56.99999,12.5 64.799992,9.6999989 67.399993,9.5999989 73.999993,12 80.599992,14.4 115.1,28.1 121.6,30.499998 c 6.7,2.4 6.9,4.4 0.2,7.799998 z"
         id="path6"
         style="stroke-width:1" /><path
         fill="#ffffff"
         d="m 80.399991,26.1 -10.799998,1.2 -2.5,5.799997 -3.9,-6.499997 -12.5,-1.1 9.299997,-3.4 -2.799998,-5.2 8.799999,3.4 8.200001,-2.7 -2.2,5.4 z M 66.499992,54.499991 46.199991,46.099993 75.299993,41.699996 Z"
         id="path7"
         style="stroke-width:1" /><ellipse
         cx="38.400002"
         cy="35.400002"
         fill="#ffffff"
         rx="15.5"
         ry="5.9999995"
         id="ellipse7"
         style="stroke-width:1" /><path
         fill="#7a0c00"
         d="m 93.299991,27.7 17.199999,6.799998 -17.199999,6.799998 z"
         id="path8"
         style="stroke-width:1" /><path
         fill="#ad2115"
         d="M 74.299992,35.299998 93.299991,27.7 v 13.599996 l -1.900002,0.8 z"
         id="path9"
         style="stroke-width:1" /></g></g></svg>
