<?xml version="1.0" encoding="UTF-8" standalone="no"?>
<!-- Uploaded to: SVG Repo, www.svgrepo.com, Generator: SVG Repo Mixer Tools -->

<svg
   width="128"
   height="128"
   viewBox="0 0 3.84 3.84"
   version="1.1"
   id="svg16"
   sodipodi:docname="iot-edge-svgrepo-com.svg"
   inkscape:export-filename="iot.svg"
   inkscape:export-xdpi="96"
   inkscape:export-ydpi="96"
   xml:space="preserve"
   xmlns:inkscape="http://www.inkscape.org/namespaces/inkscape"
   xmlns:sodipodi="http://sodipodi.sourceforge.net/DTD/sodipodi-0.dtd"
   xmlns="http://www.w3.org/2000/svg"
   xmlns:svg="http://www.w3.org/2000/svg"
   xmlns:rdf="http://www.w3.org/1999/02/22-rdf-syntax-ns#"
   xmlns:cc="http://creativecommons.org/ns#"
   xmlns:dc="http://purl.org/dc/elements/1.1/"><sodipodi:namedview
     id="namedview16"
     pagecolor="#ffffff"
     bordercolor="#000000"
     borderopacity="0.25"
     inkscape:showpageshadow="2"
     inkscape:pageopacity="0.0"
     inkscape:pagecheckerboard="0"
     inkscape:deskcolor="#d1d1d1"><inkscape:page
       x="0"
       y="0"
       width="3.8399999"
       height="3.8399999"
       id="page2"
       margin="0"
       bleed="0" /></sodipodi:namedview><defs
     id="defs4"><style
       id="style1">.cls-1,.cls-2,.cls-8{fill:#2683fb;}.cls-1,.cls-3,.cls-5{clip-rule:evenodd;}.cls-11,.cls-3,.cls-4{fill:#a6cafd;}.cls-14,.cls-5,.cls-6{fill:#559cfc;}.cls-7{fill:none;}.cls-11,.cls-14,.cls-8{fill-rule:evenodd;}.cls-9{clip-path:url(#clip-path);}.cls-10{clip-path:url(#clip-path-2);}.cls-12{clip-path:url(#clip-path-3);}.cls-13{clip-path:url(#clip-path-4);}.cls-15{clip-path:url(#clip-path-5);}.cls-16{clip-path:url(#clip-path-6);}.cls-17{clip-path:url(#clip-path-7);}.cls-18{clip-path:url(#clip-path-9);}</style></defs><title
     id="title4">Icon_24px_CloudIoTEdge_Color</title><g
     data-name="Product Icons"
     id="g16"
     transform="matrix(0.16,0,0,0.16,5.0510586,3.6762142)"><g
       id="g18"
       transform="matrix(1.2301384,0,0,1.2301384,-34.324626,-25.738012)"><path
         fill="#4285f4"
         d="m 19.5,20.06 h -0.7 v -1.5 h 0.7 a 0.76,0.76 0 0 0 0.75,-0.75 V 13.5 A 0.76,0.76 0 0 0 19.5,12.75 h -3.61 v -1.5 h 3.61 a 2.25,2.25 0 0 1 2.25,2.25 v 4.31 a 2.25,2.25 0 0 1 -2.25,2.25 z"
         id="path1-3" /><path
         fill="#4285f4"
         d="m 11.55,20.06 h -4.9 v -1.5 h 4.9 z"
         id="path2-6" /><path
         fill="#669df6"
         fill-rule="evenodd"
         d="M 8.12,12.75 H 4.5 A 2.25,2.25 0 0 1 2.25,10.5 V 6.19 A 2.25,2.25 0 0 1 4.5,3.94 h 1 v 1.5 h -1 A 0.75,0.75 0 0 0 3.75,6.19 v 4.31 a 0.76,0.76 0 0 0 0.75,0.75 h 3.62 z"
         id="path3-7" /><path
         fill="#4285f4"
         d="M 17.3,5.44 H 11.82 V 3.94 H 17.3 Z"
         id="path4-5" /><path
         fill="#aecbfa"
         d="m 8.63,3.94 v -1.5 h -3 A 1.13,1.13 0 0 0 4.5,3.56 v 2.25 a 1.13,1.13 0 0 0 1.13,1.13 h 3 V 5.44 H 6 v -1.5 z"
         id="path5-3" /><path
         fill="#669df6"
         fill-rule="evenodd"
         d="m 12.75,3.56 v 2.25 a 1.13,1.13 0 0 1 -1.12,1.13 h -3 v -1.5 h 2.62 V 3.94 H 8.63 v -1.5 h 3 a 1.12,1.12 0 0 1 1.12,1.12 z"
         id="path6" /><path
         fill="#aecbfa"
         d="m 19.31,7.13 a 2.44,2.44 0 1 1 2.44,-2.44 2.45,2.45 0 0 1 -2.44,2.44 z m 0,-3.38 a 0.94,0.94 0 1 0 0.94,0.94 0.94,0.94 0 0 0 -0.94,-0.94 z"
         id="path7-5" /><path
         fill="#9aa0a6"
         d="m 4.69,21.75 a 2.44,2.44 0 1 1 2.43,-2.44 2.44,2.44 0 0 1 -2.43,2.44 z m 0,-3.38 a 0.94,0.94 0 1 0 0.93,0.94 0.94,0.94 0 0 0 -0.93,-0.94 z"
         id="path8" /><path
         fill="#aecbfa"
         d="m 4.69,21.75 a 2.44,2.44 0 1 1 2.43,-2.44 2.44,2.44 0 0 1 -2.43,2.44 z m 0,-3.38 a 0.94,0.94 0 1 0 0.93,0.94 0.94,0.94 0 0 0 -0.93,-0.94 z"
         id="path9-6" /><path
         fill="#aecbfa"
         d="m 15.36,18.57 v -1.5 h -3 a 1.13,1.13 0 0 0 -1.12,1.13 v 2.25 a 1.12,1.12 0 0 0 1.12,1.12 h 3 v -1.5 h -2.62 v -1.5 z"
         id="path10" /><path
         fill="#669df6"
         fill-rule="evenodd"
         d="m 19.49,18.2 v 2.25 a 1.13,1.13 0 0 1 -1.13,1.12 h -3 v -1.5 H 18 v -1.5 h -2.64 v -1.5 h 3 a 1.14,1.14 0 0 1 1.13,1.13 z"
         id="path11-2" /><path
         fill="#aecbfa"
         d="M 12,11.25 V 9.75 H 9 a 1.13,1.13 0 0 0 -1.13,1.12 v 2.25 A 1.13,1.13 0 0 0 9,14.25 h 3 v -1.5 H 9.37 v -1.5 z"
         id="path12" /><path
         fill="#669df6"
         fill-rule="evenodd"
         d="m 16.12,10.87 v 2.25 A 1.13,1.13 0 0 1 15,14.25 h -3 v -1.5 h 2.62 v -1.5 H 12 v -1.5 h 3 a 1.12,1.12 0 0 1 1.12,1.12 z"
         id="path13" /></g></g><metadata
     id="metadata17"><rdf:RDF><cc:Work
         rdf:about=""><dc:title>Icon_24px_CloudIoTEdge_Color</dc:title></cc:Work></rdf:RDF></metadata></svg>
